<svg width="77" height="104" viewBox="0 0 77 104" fill="none" xmlns="http://www.w3.org/2000/svg">
<path d="M48.3453 34.3997C44.3178 37.9852 41.6337 42.4616 37.472 45.9541C33.7186 49.1038 27.6539 50.7008 22.6177 51.4852C16.9713 52.3647 10.7273 52.4345 5.05008 51.7397C3.26919 51.5218 2 51.4558 2 49.8734C2 45.3316 4.39598 40.725 10.0213 39.7612C13.1359 39.2276 16.4595 41.0138 19.1913 42.0348C23.737 43.7337 28.0981 45.7483 32.6196 47.4811C37.9528 49.525 43.3633 50.7488 49.0385 51.7906C54.5788 52.8077 59.7746 51.655 64.0116 48.4143C67.5286 45.7242 70.2035 41.8356 72.0725 38.1664C74.9541 32.5092 76.4439 23.2752 72.0725 17.8572C69.0982 14.1707 63.662 15.9045 60.8229 18.5868C57.2602 21.9525 55.1357 26.3824 52.8214 30.4126C50.5211 34.4184 48.4025 38.5104 45.929 42.442C44.145 45.2776 41.7185 47.7038 39.5714 50.3315C36.9557 53.5325 33.5331 57.0493 29.3715 58.8318C20.1353 62.788 21.2103 39.5838 21.4492 36.9108C22.4013 26.255 25.6342 15.0292 31.9858 5.74294C32.8078 4.5412 35.1685 0.15255 36.5411 2.87556C44.263 18.1946 43.9458 35.357 47.2758 51.5361C50.4025 66.7277 51.2374 82.3041 53.4156 97.6178C53.6108 98.9907 53.6594 102.772 56.2478 101.859C56.7182 101.694 59.565 100.977 58.6839 100.977" stroke="#8A8A8A" stroke-width="3" stroke-linecap="round" stroke-linejoin="round"/>
</svg>
